<?xml version="1.0" encoding="utf-8"?>
<!-- Generator: Adobe Illustrator 16.0.0, SVG Export Plug-In . SVG Version: 6.00 Build 0)  -->
<!DOCTYPE svg PUBLIC "-//W3C//DTD SVG 1.1//EN" "http://www.w3.org/Graphics/SVG/1.1/DTD/svg11.dtd">
<svg version="1.1" id="Layer_1" xmlns="http://www.w3.org/2000/svg" xmlns:xlink="http://www.w3.org/1999/xlink" x="0px" y="0px"
	 width="190.354px" height="34.024px" viewBox="14 9.189 190.354 34.024" enable-background="new 14 9.189 190.354 34.024"
	 xml:space="preserve">
<g>
	
		<polygon fill="#E14F60" stroke="#183F59" stroke-width="0.75" stroke-linecap="round" stroke-linejoin="round" stroke-miterlimit="10" points="
		43.443,20.813 42.062,16.429 47.271,17.323 	"/>
	
		<line fill="none" stroke="#183F59" stroke-width="0.5" stroke-linecap="round" stroke-linejoin="round" stroke-miterlimit="10" x1="43.002" y1="18.638" x2="47.118" y2="17.383"/>
</g>
<g>
	<path fill="#76BEA8" d="M31.425,35.555c-1.413,0-2.802-0.23-4.128-0.687c0,0-0.224-0.076-0.281-0.099
		c-0.57-0.212-1.081-0.44-1.559-0.7c-0.004-0.002-0.063-0.032-0.067-0.035c-2.221-1.273-3.972-3.276-5.092-5.812
		c-0.054-0.123-0.03-0.268,0.062-0.367c2.085-2.24,5.651-3.771,5.801-3.835c1.493-0.817,2.213-1.873,2.172-3.21
		c-0.03-1.125-0.643-2.126-1.599-2.612c-0.042-0.021-0.078-0.052-0.108-0.088c-0.025-0.028-0.182-0.119-0.559-0.153
		c-0.021-0.002-0.042-0.006-0.062-0.013c-0.131-0.01-0.248-0.015-0.369-0.015c-0.432,0-0.89,0.055-1.256,0.151
		c-0.134,0.036-0.327,0.092-0.452,0.163c-0.502,0.265-0.951,0.55-1.346,0.853c-0.061,0.047-0.134,0.07-0.205,0.07
		c-0.093,0-0.186-0.039-0.253-0.113c-0.117-0.133-0.113-0.333,0.011-0.46c0.229-0.235,0.485-0.461,0.83-0.732
		c0.033-0.024,0.085-0.071,0.153-0.131c0.43-0.378,0.695-0.587,0.908-0.653c0.514-0.517,0.761-1.042,1.07-1.702
		c0.076-0.162,0.154-0.329,0.24-0.503c0.628-1.291,1.256-2.294,2.208-3.028c-0.287,0.018-0.541,0.053-0.773,0.104
		c-0.024,0.005-0.049,0.008-0.073,0.008c-0.13,0-0.252-0.075-0.307-0.198c-0.066-0.146-0.022-0.316,0.106-0.411
		c0.31-0.229,0.653-0.427,1.02-0.586l0.247-0.103c0.022-0.01,0.045-0.017,0.068-0.021c0.249-0.075,0.502-0.141,0.757-0.2
		c-0.132-0.054-0.215-0.185-0.208-0.328c0.007-0.145,0.106-0.269,0.245-0.309c0.413-0.117,0.867-0.196,1.471-0.254
		c0.128-0.013,0.257-0.02,0.387-0.02c0.8,0,1.616,0.237,2.427,0.704c0.026,0.014,0.059,0.031,0.094,0.053
		c0.328,0.01,0.615,0.034,0.877,0.075c0.975,0.188,1.912,0.487,2.797,0.892l0.257,0.121l0.137,0.079
		c0.027,0.009,0.1,0.045,0.171,0.081c0.088,0.036,0.195,0.091,0.301,0.15c0.293,0.159,0.608,0.35,0.981,0.594
		c0.011,0.007,0.022,0.014,0.034,0.021c3.501,2.377,5.591,6.316,5.591,10.536C44.147,29.848,38.44,35.555,31.425,35.555z"/>
	<path fill="#183F59" d="M30.483,9.865c0.758,0,1.529,0.238,2.259,0.658c0.054,0.027,0.108,0.062,0.162,0.096
		c0.311,0.007,0.621,0.026,0.925,0.073c0.945,0.183,1.85,0.474,2.708,0.864c0.088,0.041,0.169,0.081,0.257,0.122
		c0.034,0.021,0.068,0.041,0.101,0.062c0.061,0.026,0.128,0.061,0.196,0.095c0.095,0.041,0.189,0.088,0.284,0.142
		c0.338,0.183,0.662,0.385,0.979,0.594c0,0,0.007,0.008,0.014,0.008c3.282,2.228,5.443,5.989,5.443,10.257
		c0,6.84-5.544,12.384-12.384,12.384c-1.405,0-2.762-0.236-4.018-0.669c-0.095-0.034-0.182-0.062-0.27-0.095
		c-0.527-0.196-1.033-0.419-1.519-0.683c-0.034-0.014-0.061-0.034-0.088-0.047c-2.134-1.222-3.849-3.207-4.923-5.638
		c2.06-2.215,5.686-3.754,5.686-3.754c1.013-0.555,2.438-1.594,2.377-3.532c-0.034-1.269-0.723-2.363-1.783-2.904
		c-0.122-0.148-0.419-0.243-0.79-0.276c-0.007-0.008-0.014-0.008-0.02-0.008c-0.138-0.014-0.287-0.021-0.442-0.021
		c-0.448,0-0.939,0.057-1.341,0.162c-0.203,0.054-0.392,0.115-0.533,0.196c-0.486,0.257-0.952,0.547-1.384,0.878
		c0.25-0.258,0.513-0.479,0.797-0.702c0.138-0.105,0.797-0.737,0.998-0.737c0.005,0,0.01,0,0.015,0.001
		c0.75-0.716,0.999-1.452,1.452-2.37c0.729-1.499,1.506-2.742,3.039-3.478c-0.251-0.032-0.502-0.051-0.754-0.051
		c-0.066,0-0.132,0.001-0.199,0.004c-0.344,0.014-0.689,0.047-1.026,0.122c0.29-0.217,0.608-0.398,0.952-0.548l0.243-0.101H27.9
		c0.446-0.135,0.898-0.243,1.364-0.324c0.122-0.014,0.236-0.02,0.358-0.02c-0.014-0.015-0.027-0.021-0.047-0.034
		c-0.243-0.182-0.527-0.338-0.858-0.466c0.452-0.128,0.925-0.196,1.411-0.243C30.246,9.87,30.364,9.865,30.483,9.865 M30.483,9.189
		c-0.141,0-0.282,0.007-0.422,0.021c-0.622,0.06-1.094,0.142-1.528,0.265c-0.279,0.079-0.477,0.328-0.49,0.618
		c-0.002,0.044,0,0.088,0.006,0.13c-0.103,0.028-0.206,0.058-0.309,0.088c-0.037,0.008-0.073,0.021-0.107,0.034l-0.243,0.101
		c-0.399,0.173-0.764,0.383-1.096,0.63c-0.255,0.189-0.343,0.532-0.211,0.821c0.095,0.207,0.284,0.348,0.497,0.386
		c-0.69,0.757-1.154,1.629-1.55,2.442c-0.085,0.173-0.165,0.342-0.241,0.506c-0.284,0.605-0.512,1.094-0.95,1.553
		c-0.256,0.104-0.534,0.333-0.943,0.692c-0.059,0.051-0.105,0.093-0.133,0.115c-0.363,0.285-0.63,0.521-0.87,0.767
		c-0.247,0.254-0.256,0.655-0.021,0.919c0.133,0.15,0.318,0.228,0.505,0.228c0.144,0,0.288-0.046,0.41-0.139
		c0.381-0.292,0.814-0.566,1.289-0.817c0.086-0.049,0.211-0.092,0.392-0.141c0.332-0.088,0.769-0.141,1.167-0.141
		c0.111,0,0.218,0.004,0.32,0.012c0.026,0.007,0.053,0.011,0.081,0.013c0.204,0.019,0.322,0.056,0.367,0.075
		c0.051,0.053,0.111,0.097,0.177,0.131c0.846,0.431,1.388,1.319,1.414,2.319c0.037,1.193-0.616,2.144-1.998,2.906
		c-0.396,0.171-3.832,1.696-5.884,3.902c-0.184,0.198-0.232,0.485-0.123,0.732c1.149,2.602,2.949,4.659,5.205,5.952
		c0.011,0.006,0.022,0.012,0.034,0.019c0.023,0.015,0.055,0.031,0.09,0.049c0.486,0.262,1.004,0.494,1.583,0.709
		c0.054,0.021,0.116,0.042,0.179,0.062l0.099,0.034c1.367,0.471,2.793,0.708,4.245,0.708c7.201,0,13.06-5.857,13.06-13.06
		c0-4.333-2.145-8.376-5.739-10.816c-0.016-0.011-0.033-0.021-0.05-0.031c-0.378-0.248-0.697-0.44-1.001-0.605
		c-0.097-0.055-0.208-0.111-0.319-0.16c-0.057-0.028-0.113-0.056-0.166-0.081l-0.018-0.011l-0.05-0.03
		c-0.021-0.013-0.043-0.023-0.065-0.034l-0.119-0.056l-0.138-0.065c-0.912-0.416-1.874-0.724-2.863-0.914
		c-0.274-0.043-0.551-0.068-0.858-0.081c-0.012-0.006-0.023-0.013-0.035-0.019C32.205,9.438,31.337,9.189,30.483,9.189L30.483,9.189
		z"/>
</g>
<g>
	<path fill="#76BEA8" d="M20.797,27.415c-1.607,0-3.104-0.481-4.452-1.431c-0.497-0.348-0.952-0.747-1.352-1.184l-0.372-0.407
		l0.532-0.146c0.371-0.104,0.77-0.264,1.22-0.491c2.772-1.425,5.364-4.633,5.39-4.666c1.141-1.168,2.269-1.723,3.472-1.723
		c0.399,0,0.805,0.063,1.208,0.19c1.369,0.425,2.393,1.521,2.685,2.868c0.122,0.223,0.152,0.544,0.09,0.957l0.011,0.019
		l-0.037,0.157c-0.101,0.58-0.377,1.326-0.695,1.869c-0.155,0.262-0.281,0.435-0.41,0.562c-0.428,0.449-0.88,0.855-1.337,1.197
		C24.925,26.622,22.808,27.415,20.797,27.415C20.798,27.415,20.798,27.415,20.797,27.415z"/>
	<path fill="#183F59" d="M25.235,17.705c0.349,0,0.718,0.053,1.107,0.176c1.294,0.402,2.219,1.426,2.467,2.671
		c0.117,0.168,0.129,0.5,0.056,0.892c0.005,0.01,0.003,0.017,0.001,0.023c-0.101,0.571-0.359,1.276-0.661,1.79
		c-0.114,0.192-0.231,0.369-0.355,0.491c-0.404,0.425-0.837,0.819-1.302,1.168c-1.726,1.356-3.741,2.161-5.75,2.161
		c-1.46,0-2.917-0.425-4.258-1.369c-0.481-0.338-0.92-0.724-1.297-1.137c0.43-0.117,0.855-0.298,1.283-0.515
		c2.871-1.475,5.501-4.755,5.501-4.755C22.718,18.595,23.809,17.705,25.235,17.705 M25.235,17.031c-1.299,0-2.506,0.589-3.691,1.8
		l-0.023,0.023L21.5,18.88c-0.025,0.032-2.577,3.187-5.283,4.577c-0.427,0.216-0.805,0.369-1.154,0.464L14,24.214l0.744,0.813
		c0.416,0.455,0.89,0.87,1.408,1.233c1.404,0.989,2.968,1.491,4.645,1.491c2.086,0,4.277-0.819,6.167-2.306
		c0.46-0.344,0.926-0.762,1.374-1.233c0.176-0.173,0.332-0.419,0.447-0.612c0.338-0.575,0.619-1.331,0.739-1.983l0.066-0.238
		l-0.026-0.05c0.049-0.414,0.01-0.755-0.117-1.018c-0.33-1.445-1.434-2.618-2.906-3.075C26.109,17.1,25.668,17.031,25.235,17.031
		L25.235,17.031z"/>
</g>
<g>
	<g>
		<path fill="#183F59" d="M33.537,37.506c0,0-0.16,0.016-0.401,0.041c-0.121,0.012-0.264,0.022-0.391,0.057
			c-0.131,0.036-0.288,0.043-0.425,0.108c-0.142,0.06-0.285,0.12-0.418,0.176c-0.13,0.07-0.247,0.146-0.35,0.206
			c-0.207,0.124-0.344,0.207-0.344,0.207s0.112-0.116,0.279-0.29c0.085-0.086,0.181-0.192,0.293-0.298
			c0.124-0.096,0.256-0.199,0.388-0.302c0.131-0.109,0.297-0.166,0.439-0.247c0.15-0.082,0.281-0.128,0.393-0.17
			c0.225-0.086,0.375-0.144,0.375-0.144l0.006-0.002c0.176-0.066,0.373,0.021,0.44,0.197c0.067,0.176-0.021,0.373-0.197,0.439
			C33.596,37.496,33.565,37.502,33.537,37.506z"/>
		<path fill="#183F59" d="M34.332,36.847c0,0,0.199,0.024,0.498,0.061c0.304,0.039,0.713,0.097,1.114,0.214
			c0.198,0.068,0.395,0.134,0.565,0.229c0.177,0.077,0.32,0.189,0.449,0.27c0.125,0.086,0.216,0.175,0.285,0.228
			c0.067,0.056,0.105,0.088,0.105,0.088s-0.044-0.022-0.122-0.063c-0.079-0.038-0.184-0.104-0.321-0.16
			c-0.14-0.05-0.293-0.125-0.473-0.161c-0.173-0.053-0.366-0.073-0.554-0.097c-0.382-0.027-0.769,0-1.061,0.023
			c-0.297,0.028-0.496,0.046-0.496,0.046c-0.187,0.018-0.352-0.12-0.37-0.307c-0.017-0.188,0.12-0.352,0.307-0.37
			C34.283,36.844,34.309,36.845,34.332,36.847z"/>
		<path fill="#183F59" d="M33.822,36.845c0,0,0.049,0.01,0.135,0.028c0.043,0.009,0.095,0.02,0.155,0.033
			c0.062,0.015,0.121,0.019,0.215,0.06c0.086,0.035,0.178,0.073,0.276,0.113c0.102,0.033,0.176,0.108,0.266,0.168
			c0.088,0.062,0.177,0.126,0.245,0.214c0.07,0.085,0.154,0.16,0.209,0.253c0.118,0.184,0.218,0.369,0.28,0.556
			c0.082,0.179,0.106,0.359,0.151,0.504c0.06,0.3,0.088,0.498,0.088,0.498s-0.07-0.19-0.188-0.464
			c-0.074-0.13-0.131-0.295-0.242-0.441c-0.093-0.158-0.218-0.303-0.348-0.435c-0.062-0.067-0.145-0.112-0.213-0.167
			c-0.066-0.059-0.146-0.091-0.222-0.122c-0.075-0.027-0.142-0.077-0.212-0.079c-0.066-0.013-0.128-0.024-0.185-0.036
			c-0.047-0.018-0.127-0.011-0.186-0.012c-0.061,0-0.115,0-0.159,0c-0.088,0-0.138,0-0.138,0c-0.188,0.001-0.34-0.15-0.341-0.339
			c-0.001-0.188,0.151-0.34,0.339-0.341C33.772,36.837,33.8,36.84,33.822,36.845z"/>
		
			<line fill="none" stroke="#183F59" stroke-linecap="round" stroke-linejoin="round" stroke-miterlimit="10" x1="33.825" y1="34.242" x2="33.868" y2="37.181"/>
	</g>
	<path fill="#183F59" d="M32.432,33.591c0,0,0.053-0.005,0.141-0.003c0.086-0.002,0.216,0.021,0.343,0.013
		c0.125,0.004,0.266-0.002,0.417-0.003c0.073,0.011,0.152-0.019,0.228-0.014c0.076,0.003,0.154-0.003,0.233-0.021
		c0.158-0.001,0.315-0.038,0.472-0.048c0.155-0.018,0.304-0.045,0.444-0.047c0.266-0.039,0.484-0.02,0.484-0.02
		s-0.107,0.18-0.332,0.377c-0.059,0.045-0.124,0.093-0.197,0.135c-0.074,0.042-0.146,0.101-0.236,0.127
		c-0.173,0.074-0.368,0.128-0.574,0.147c-0.413,0.035-0.828-0.075-1.085-0.276c-0.137-0.083-0.199-0.185-0.257-0.252
		C32.459,33.637,32.432,33.591,32.432,33.591z"/>
</g>
<circle fill="#FFFFFF" stroke="#183F59" stroke-width="0.5" stroke-miterlimit="10" cx="38.372" cy="17.869" r="2.279"/>
<g>
	<path fill="#183F59" d="M40.037,17.533c0.003,0.162-0.036,0.328-0.114,0.482c-0.27,0.548-0.94,0.774-1.487,0.497
		c-0.548-0.27-0.768-0.938-0.498-1.487c0.277-0.547,0.939-0.768,1.487-0.497c0.026,0.011,0.045,0.025,0.07,0.042
		c-0.08,0.047-0.149,0.12-0.2,0.217c-0.131,0.271-0.025,0.608,0.252,0.74C39.71,17.607,39.887,17.605,40.037,17.533z"/>
</g>
<ellipse opacity="0.3" fill="#454C53" enable-background="new    " cx="31.735" cy="42.457" rx="10.947" ry="0.649"/>
<g>
	<g>
		<path fill="#183F59" d="M23.36,34.182c0,0,0.069,0.146,0.174,0.362c0.052,0.107,0.116,0.23,0.168,0.394
			c0.048,0.157,0.129,0.312,0.149,0.481c0.025,0.165,0.05,0.331,0.073,0.485c0.008,0.153,0.005,0.297,0.007,0.419
			c0.002,0.241,0.003,0.402,0.003,0.402s-0.043-0.155-0.107-0.387c-0.033-0.115-0.066-0.25-0.112-0.39
			c-0.058-0.134-0.12-0.274-0.182-0.416c-0.055-0.143-0.164-0.255-0.234-0.371c-0.069-0.112-0.164-0.22-0.244-0.312
			c-0.157-0.183-0.262-0.305-0.262-0.305c-0.123-0.144-0.106-0.358,0.036-0.481c0.143-0.123,0.358-0.105,0.481,0.036
			c0.02,0.023,0.036,0.048,0.048,0.073L23.36,34.182z"/>
		<path fill="#183F59" d="M22.21,34.017c0,0-0.131-0.149-0.328-0.375c-0.195-0.218-0.457-0.504-0.753-0.748
			c-0.153-0.111-0.306-0.229-0.468-0.311c-0.155-0.098-0.318-0.149-0.454-0.208c-0.138-0.054-0.26-0.078-0.343-0.104
			c-0.084-0.023-0.132-0.037-0.132-0.037s0.05,0.003,0.137,0.01c0.087,0.009,0.214,0.007,0.364,0.03
			c0.148,0.03,0.329,0.048,0.511,0.113c0.189,0.049,0.376,0.137,0.568,0.223c0.371,0.191,0.708,0.433,0.956,0.612
			c0.241,0.18,0.402,0.299,0.402,0.299c0.15,0.112,0.182,0.325,0.07,0.476c-0.112,0.149-0.325,0.182-0.475,0.069
			C22.243,34.052,22.225,34.034,22.21,34.017z"/>
		<path fill="#183F59" d="M22.629,34.407c0,0-0.036-0.035-0.1-0.097c-0.032-0.029-0.071-0.066-0.115-0.109
			c-0.044-0.04-0.097-0.101-0.143-0.119c-0.049-0.031-0.102-0.065-0.159-0.102c-0.052-0.047-0.135-0.057-0.208-0.089
			c-0.076-0.029-0.157-0.061-0.245-0.063c-0.087-0.007-0.177-0.032-0.269-0.025c-0.185,0.007-0.375,0.024-0.551,0.075
			c-0.181,0.03-0.337,0.109-0.48,0.154c-0.274,0.116-0.455,0.207-0.455,0.207s0.157-0.125,0.406-0.302
			c0.133-0.073,0.275-0.188,0.456-0.262c0.173-0.092,0.374-0.158,0.586-0.21c0.105-0.03,0.217-0.026,0.326-0.039
			c0.11-0.017,0.219-0.002,0.325,0.013c0.106,0.02,0.212,0.017,0.309,0.062c0.099,0.038,0.192,0.075,0.278,0.107
			c0.096,0.035,0.142,0.073,0.197,0.105c0.052,0.032,0.098,0.06,0.135,0.083c0.075,0.046,0.118,0.072,0.118,0.072
			c0.161,0.097,0.212,0.306,0.115,0.466c-0.097,0.161-0.306,0.212-0.466,0.115C22.668,34.44,22.646,34.422,22.629,34.407z"/>
		
			<line fill="none" stroke="#183F59" stroke-linecap="round" stroke-linejoin="round" stroke-miterlimit="10" x1="24.47" y1="32.299" x2="22.774" y2="34.083"/>
	</g>
	<path fill="#183F59" d="M23.904,30.64c0,0,0.036,0.051,0.089,0.142c0.06,0.081,0.102,0.239,0.202,0.359
		c0.046,0.063,0.094,0.127,0.132,0.196c0.044,0.067,0.119,0.133,0.168,0.207c0.048,0.077,0.119,0.141,0.187,0.211
		c0.07,0.068,0.121,0.148,0.205,0.209c0.278,0.282,0.616,0.541,0.854,0.778c0.249,0.222,0.402,0.422,0.402,0.422
		s-0.248,0.007-0.589-0.082c-0.167-0.055-0.368-0.107-0.56-0.224c-0.202-0.096-0.392-0.246-0.576-0.409
		c-0.093-0.078-0.161-0.19-0.241-0.282c-0.082-0.091-0.139-0.2-0.187-0.311c-0.111-0.205-0.159-0.437-0.172-0.629
		c-0.033-0.188,0.029-0.32,0.042-0.427C23.884,30.699,23.904,30.64,23.904,30.64z"/>
</g>
<path fill="#183F59" d="M39.021,14.845c0,0-0.065,0.021-0.172,0.033c-0.103,0.034-0.272,0-0.415,0.045
	c-0.073,0.016-0.146,0.027-0.221,0.031c-0.076,0.011-0.165,0.033-0.251,0.037c-0.089-0.011-0.181,0.001-0.279,0.009
	c-0.097,0.01-0.2,0.004-0.299,0.036c-0.2,0.047-0.402,0.106-0.587,0.189c-0.189,0.068-0.358,0.164-0.512,0.228
	c-0.296,0.148-0.494,0.26-0.494,0.26c-0.016,0.009-0.037,0.004-0.047-0.012c-0.008-0.014-0.005-0.03,0.005-0.041
	c0,0,0.155-0.163,0.401-0.401c0.131-0.109,0.269-0.26,0.456-0.375c0.175-0.131,0.379-0.25,0.598-0.357
	c0.103-0.065,0.227-0.092,0.339-0.143c0.113-0.054,0.233-0.081,0.354-0.092c0.122-0.004,0.234-0.018,0.348,0.011
	c0.116,0.027,0.222,0.06,0.314,0.096c0.193,0.065,0.274,0.179,0.361,0.254c0.078,0.074,0.119,0.129,0.119,0.129
	c0.014,0.018,0.01,0.044-0.008,0.058C39.03,14.841,39.025,14.844,39.021,14.845z"/>
<g>
	<g>
		<defs>
			<path id="SVGID_1_" d="M43.811,22.833c0,6.84-5.544,12.384-12.384,12.384c-1.405,0-2.762-0.236-4.018-0.669
				c-0.095-0.034-0.182-0.062-0.27-0.095c-0.527-0.196-1.033-0.419-1.519-0.683c-0.034-0.014-0.061-0.034-0.088-0.047
				c-2.573-1.472-4.538-4.052-5.497-7.178c-0.196-0.608-0.344-1.243-0.446-1.897c0.155-2.12,1.08-4.105,2.6-5.645
				c0.304-0.312,0.628-0.602,0.986-0.878c0.142-0.108,0.831-0.771,1.013-0.736c0.75-0.716,0.999-1.452,1.452-2.37
				c0.729-1.499,1.506-2.742,3.039-3.478c-0.317-0.041-0.635-0.062-0.952-0.047c-0.344,0.014-0.689,0.047-1.026,0.122
				c0.29-0.217,0.608-0.398,0.952-0.548l0.243-0.101h0.007c0.446-0.135,0.898-0.243,1.364-0.324c0.122-0.014,0.236-0.02,0.358-0.02
				c-0.013-0.015-0.027-0.021-0.047-0.034c-0.243-0.182-0.527-0.338-0.858-0.466c0.452-0.128,0.925-0.196,1.411-0.243
				c0.871-0.088,1.769,0.155,2.613,0.641c0.054,0.027,0.108,0.062,0.162,0.096c0.311,0.007,0.621,0.026,0.925,0.073
				c0.945,0.183,1.85,0.474,2.708,0.864c0.088,0.041,0.169,0.081,0.257,0.122c0.034,0.021,0.068,0.041,0.101,0.062
				c0.061,0.026,0.128,0.061,0.196,0.095c0.095,0.041,0.189,0.088,0.284,0.142c0.338,0.183,0.662,0.385,0.979,0.594
				c0,0,0.007,0.008,0.013,0.008C41.65,14.805,43.811,18.566,43.811,22.833z"/>
		</defs>
		<clipPath id="SVGID_2_">
			<use xlink:href="#SVGID_1_"  overflow="visible"/>
		</clipPath>
		<g clip-path="url(#SVGID_2_)">
			
				<ellipse transform="matrix(-0.7093 0.7049 -0.7049 -0.7093 86.1496 32.4047)" fill="#E14F60" stroke="#183F59" stroke-width="0.75" stroke-linecap="round" stroke-linejoin="round" stroke-miterlimit="10" cx="36.393" cy="33.966" rx="8.991" ry="8.753"/>
		</g>
	</g>
</g>
<g>
	<path fill="#FFFFFF" stroke="#173E58" stroke-width="0.5" stroke-miterlimit="10" d="M69.274,28.7c0,0,0.01-0.131,0.31-0.29
		c2.46-1.301,4.13-3.881,4.13-6.851c0-2.85-1.55-5.35-3.85-6.689c-1.14-0.67-2.47-1.051-3.89-1.051h-9.89
		c-0.67,0-1.21,0.54-1.21,1.211v12.59c0,0.06,0,0.109,0.01,0.17c-0.01,0.05-0.01,0.109-0.01,0.17v8c0,0.67,0.54,1.22,1.21,1.22h3.5
		c0.67,0,1.21-0.55,1.21-1.22c0,0-0.02-2.15,0-3.72l-0.75-0.641l0.79-0.58c0.01-0.2,0.02-0.33,0.04-0.359
		c0.33-0.5,0.93-0.9,1.73-0.9c0.68,0,1.28,0.25,1.64,0.64c0.02,0.021,0.03,0.03,0.05,0.051c0.19,0.22,2.99,5.51,2.99,5.51
		c0.41,0.74,1.05,1.22,1.72,1.22h4.11c0.67,0,1.21-0.55,1.21-1.22C74.324,35.96,69.964,28.93,69.274,28.7z M65.804,24.84h-0.03
		c-0.07,0.01-0.15,0.02-0.22,0.02h-4.23c-0.66,0-1.19-0.529-1.19-1.18v-3.6c0-0.65,0.53-1.181,1.19-1.181h4.23
		c0.07,0,0.15,0.011,0.22,0.021h0.03c1.62,0.02,2.93,1.33,2.93,2.96C68.734,23.5,67.424,24.82,65.804,24.84z"/>
	<path fill="#FFFFFF" stroke="#173E58" stroke-width="0.5" stroke-miterlimit="10" d="M90.754,29.07c0-4.89-2.65-9.109-8.37-9.109
		c-4.92,0-8.4,3.85-8.4,8.71v0.06c0,5.141,3.69,8.65,8.92,8.65c3.3,0,5.6-1.351,7.21-3.38l-3.24-2.681
		c-1.2,1.171-2.27,1.69-3.69,1.69c-1.82,0-3.14-0.92-3.6-2.74h11.14C90.754,29.87,90.754,29.44,90.754,29.07z M79.494,27.29
		c0.3-1.851,1.35-3.021,2.89-3.021c1.6,0,2.71,1.17,2.92,3.021H79.494z"/>
	<path fill="#FFFFFF" stroke="#173E58" stroke-width="0.5" stroke-miterlimit="10" d="M106.504,22.12
		c-1.32-1.33-3.36-2.04-6.34-2.04c-2.86,0-4.86,0.529-6.74,1.3l1.2,4.09c1.51-0.55,2.86-0.92,4.62-0.92c2.24,0,3.32,0.979,3.32,2.74
		v0.27c-0.95-0.37-2.46-0.64-4-0.64c-3.91,0-6.53,1.75-6.53,5.229v0.061c0,3.29,2.4,5.14,5.57,5.14c2.19,0,3.76-0.859,4.93-2.12
		v1.75h5.75V27.41C108.284,25.07,107.764,23.35,106.504,22.12z M102.624,30.95c0,1.659-1.2,2.739-2.92,2.739
		c-1.2,0-2.06-0.68-2.06-1.819V31.81c0-1.26,0.98-2.06,2.67-2.06c0.87,0,1.7,0.18,2.31,0.43V30.95z"/>
	<path fill="#FFFFFF" stroke="#173E58" stroke-width="0.5" stroke-miterlimit="10" d="M122.214,30.73c-0.9,1.08-1.79,1.73-3.21,1.73
		c-1.97,0-3.319-1.63-3.319-3.79V28.61c0-2.029,1.39-3.72,3.289-3.72c1.391,0,2.28,0.67,3.11,1.75l3.94-2.95
		c-1.41-2.22-3.69-3.699-7.11-3.699c-5.261,0-8.89,3.97-8.89,8.68v0.06c0,4.71,3.66,8.65,8.709,8.65c3.631,0,5.841-1.54,7.381-3.811
		L122.214,30.73z"/>
	<path fill="#FFFFFF" stroke="#173E58" stroke-width="0.5" stroke-miterlimit="10" d="M138.653,19.96
		c-2.369,0-3.909,1.26-4.979,2.649v-8.1h-5.85v22.47h5.85v-9.02c0-1.84,1.04-2.83,2.46-2.83c1.41,0,2.37,0.99,2.37,2.83v9.02h5.82
		V26.09C144.324,22.3,142.194,19.96,138.653,19.96z"/>
	<path fill="#FFFFFF" stroke="#173E58" stroke-width="0.5" stroke-miterlimit="10" d="M157.104,19.96c-2.49,0-3.91,1.2-5.051,2.59
		v-8.04h-5.85v22.47h5.85V34.95c1.08,1.26,2.561,2.399,5.08,2.399c3.94,0,7.36-3.29,7.36-8.71v-0.06
		C164.494,23.25,161.074,19.96,157.104,19.96z M158.765,28.67c0,2.25-1.541,3.79-3.42,3.79c-1.9,0-3.41-1.57-3.41-3.79V28.61
		c0-2.22,1.51-3.79,3.41-3.79c1.879,0,3.42,1.57,3.42,3.79V28.67z"/>
	<path fill="#FFFFFF" stroke="#173E58" stroke-width="0.5" stroke-miterlimit="10" d="M166.044,14.51v4.31h6.061v-4.31H166.044z
		 M166.164,20.33V36.98h5.819V20.33H166.164z"/>
	<path fill="#FFFFFF" stroke="#173E58" stroke-width="0.5" stroke-miterlimit="10" d="M179.584,23.69V20.33h-5.851V36.98h5.851v-5.2
		c0-3.819,1.72-5.569,4.771-5.569h0.49v-6.16C182.074,19.93,180.534,21.41,179.584,23.69z"/>
	<path fill="#FFFFFF" stroke="#173E58" stroke-width="0.5" stroke-miterlimit="10" d="M198.265,14.51v7.85
		c-1.08-1.26-2.561-2.399-5.08-2.399c-3.94,0-7.36,3.29-7.36,8.71v0.06c0,5.33,3.42,8.62,7.39,8.62c2.49,0,3.91-1.2,5.051-2.58v2.21
		h5.84V14.51H198.265z M198.384,28.67c0,2.22-1.51,3.79-3.42,3.79c-1.869,0-3.41-1.57-3.41-3.79V28.61c0-2.22,1.54-3.79,3.41-3.79
		c1.91,0,3.42,1.601,3.42,3.79V28.67z"/>
	<circle fill="#FFFFFF" cx="63.319" cy="31.428" r="0.344"/>
</g>
</svg>
